<svg xmlns="http://www.w3.org/2000/svg" width="20.215" height="20.208" viewBox="0 0 20.215 20.208">
  <g id="Group_2031" data-name="Group 2031" transform="translate(-1237.12 -2076.216)">
    <g id="Group_2030" data-name="Group 2030" transform="translate(1238.12 2076.864)">
      <path id="Path_1108" data-name="Path 1108" d="M-113.414,181.7v7.06a2.047,2.047,0,0,1-2.044,2.044h-14.121a2.049,2.049,0,0,1-2.051-2.044V174.644a2.054,2.054,0,0,1,2.051-2.044h6.986" transform="translate(131.63 -172.247)" fill="none" stroke="#fff" stroke-width="2"/>
      <g id="Group_2029" data-name="Group 2029" transform="translate(6.215)">
        <path id="Path_1109" data-name="Path 1109" d="M-108.152,175.207l-1.7,1.664-2.6-2.652,1.7-1.665a2.1,2.1,0,0,1,2.664.1A1.949,1.949,0,0,1-108.152,175.207Z" transform="translate(120.49 -172.126)" fill="#fff"/>
        <rect id="Rectangle_1461" data-name="Rectangle 1461" width="8.812" height="3.714" transform="translate(1.142 8.849) rotate(-44.41)" fill="#fff"/>
        <path id="Path_1110" data-name="Path 1110" d="M-122.728,184.827l2.6,2.653-.036.035-3.1.448.5-3.1Z" transform="translate(123.268 -175.388)" fill="#fff"/>
      </g>
    </g>
  </g>
</svg>
