<svg id="thumb_up_black_24dp_1_" data-name="thumb_up_black_24dp (1)" xmlns="http://www.w3.org/2000/svg" width="14" height="14" viewBox="0 0 14 14">
  <path id="Path_1134" data-name="Path 1134" d="M0,0H14V14H0ZM0,0H14V14H0Z" fill="none"/>
  <path id="Path_1135" data-name="Path 1135" d="M8.07,1.875,4.838,5.107a1.165,1.165,0,0,0-.338.823v5.827a1.17,1.17,0,0,0,1.167,1.167h5.25a1.175,1.175,0,0,0,1.073-.706l1.9-4.439a1.753,1.753,0,0,0-1.61-2.438h-3.3L9.54,2.668a.88.88,0,0,0-.239-.8A.868.868,0,0,0,8.07,1.875Zm-5.9,11.048a1.17,1.17,0,0,0,1.167-1.167V7.09A1.167,1.167,0,1,0,1,7.09v4.667A1.17,1.17,0,0,0,2.167,12.923Z" transform="translate(-0.417 -0.673)" fill="#828793"/>
</svg>
