<svg xmlns="http://www.w3.org/2000/svg" width="9.748" height="12.776" viewBox="0 0 9.748 12.776">
  <path id="Path_1103" data-name="Path 1103" d="M-141.1,176.706a4.875,4.875,0,0,0-4.875,4.875,4.932,4.932,0,0,0,.151,1.212,4.856,4.856,0,0,0,.675,1.5l.423.542,3.626,4.644,3.707-4.739.26-.333a4.809,4.809,0,0,0,.756-1.627,4.825,4.825,0,0,0,.15-1.2A4.875,4.875,0,0,0-141.1,176.706Zm0,6.738a1.517,1.517,0,0,1-1.517-1.517,1.517,1.517,0,0,1,1.517-1.517,1.517,1.517,0,0,1,1.517,1.517A1.517,1.517,0,0,1-141.1,183.444Z" transform="translate(145.97 -176.706)" fill="#86888b"/>
</svg>
