<svg xmlns="http://www.w3.org/2000/svg" width="9.143" height="12" viewBox="0 0 9.143 12">
  <path id="Path_1104" data-name="Path 1104" d="M-162.864,179.807h-.571v-1.143a2.858,2.858,0,0,0-2.857-2.857,2.858,2.858,0,0,0-2.857,2.857v1.143h-.571a1.146,1.146,0,0,0-1.143,1.143v5.714a1.146,1.146,0,0,0,1.143,1.143h6.857a1.146,1.146,0,0,0,1.143-1.143V180.95A1.146,1.146,0,0,0-162.864,179.807Zm-1.657,0h-3.543v-1.143a1.773,1.773,0,0,1,1.771-1.771,1.773,1.773,0,0,1,1.771,1.771Z" transform="translate(170.864 -175.807)" fill="#CCD0D9"/>
</svg>
