<svg id="paypal-seeklogo.com" xmlns="http://www.w3.org/2000/svg" width="75.739" height="18.35" viewBox="0 0 75.739 18.35">
  <path id="Path_936" data-name="Path 936" d="M174.088,386.87h5.176c2.779,0,3.825,1.407,3.663,3.474-.267,3.412-2.33,5.3-5.066,5.3h-1.381c-.375,0-.628.248-.729.922l-.587,3.914c-.039.254-.172.4-.373.421h-3.252c-.306,0-.414-.234-.334-.74l1.983-12.549A.789.789,0,0,1,174.088,386.87Z" transform="translate(-167.479 -382.551)" fill="#009ee3"/>
  <path id="Path_937" data-name="Path 937" d="M316.782,385.13c1.746,0,3.357.947,3.137,3.308-.267,2.806-1.77,4.358-4.142,4.365h-2.072c-.3,0-.442.243-.52.741l-.4,2.548c-.06.385-.258.574-.549.574h-1.928c-.307,0-.414-.2-.346-.636l1.591-10.211c.079-.5.267-.689.611-.689h4.615Zm-3.14,5.467h1.57c.982-.037,1.634-.717,1.7-1.944a1.186,1.186,0,0,0-1.285-1.3l-1.478.007-.506,3.233Zm11.518,5.288c.176-.16.355-.243.33-.045l-.063.473c-.032.247.065.378.3.378h1.713c.289,0,.429-.116.5-.562l1.055-6.624c.053-.333-.028-.5-.281-.5h-1.884c-.17,0-.253.095-.3.354l-.069.407c-.036.212-.134.25-.224.036-.319-.756-1.134-1.1-2.271-1.069a4.714,4.714,0,0,0-4.613,4.631,3.183,3.183,0,0,0,3.156,3.55,3.387,3.387,0,0,0,2.659-1.029h0Zm-1.435-1.019a1.721,1.721,0,0,1-1.765-2.019,2.459,2.459,0,0,1,2.365-2.019,1.721,1.721,0,0,1,1.765,2.019,2.458,2.458,0,0,1-2.365,2.019Zm8.617-5.878h-1.737c-.358,0-.5.267-.39.6l2.156,6.314-2.115,3c-.178.251-.04.48.21.48h1.952a.6.6,0,0,0,.58-.285l6.632-9.512c.2-.293.108-.6-.227-.6h-1.848c-.317,0-.444.126-.625.389l-2.766,4.008-1.236-4.017a.529.529,0,0,0-.585-.377Z" transform="translate(-287.703 -381.043)" fill="#113984"/>
  <path id="Path_938" data-name="Path 938" d="M539.451,385.113c1.746,0,3.357.947,3.137,3.308-.267,2.806-1.77,4.358-4.142,4.365h-2.071c-.3,0-.442.243-.52.741l-.4,2.548c-.06.385-.258.574-.549.574h-1.928c-.307,0-.414-.2-.346-.636l1.594-10.214c.079-.5.267-.689.611-.689h4.615Zm-3.14,5.467h1.57c.982-.037,1.634-.717,1.7-1.944a1.186,1.186,0,0,0-1.285-1.3l-1.478.007-.506,3.233Zm11.518,5.288c.176-.16.355-.243.33-.045l-.063.473c-.032.247.065.378.3.378H550.1c.289,0,.429-.116.5-.562l1.055-6.624c.053-.333-.028-.5-.281-.5H549.5c-.17,0-.253.095-.3.354l-.07.407c-.036.212-.134.25-.224.036-.319-.756-1.134-1.1-2.271-1.069a4.714,4.714,0,0,0-4.613,4.631,3.183,3.183,0,0,0,3.156,3.55,3.388,3.388,0,0,0,2.659-1.029h0Zm-1.434-1.019a1.721,1.721,0,0,1-1.765-2.019A2.459,2.459,0,0,1,547,390.811a1.721,1.721,0,0,1,1.765,2.019,2.459,2.459,0,0,1-2.365,2.019Zm7.9,1.836h-1.977a.234.234,0,0,1-.242-.267l1.737-11a.341.341,0,0,1,.329-.267h1.977a.234.234,0,0,1,.242.267l-1.737,11a.341.341,0,0,1-.329.27Z" transform="translate(-480.625 -381.026)" fill="#009ee3"/>
  <path id="Path_939" data-name="Path 939" d="M146.854,354.54h5.181c1.459,0,3.19.047,4.347,1.069a3.512,3.512,0,0,1,1.086,2.939c-.318,3.956-2.684,6.172-5.858,6.172h-2.554c-.436,0-.723.289-.846,1.069l-.713,4.542c-.047.294-.174.468-.4.489h-3.2c-.354,0-.48-.267-.387-.858l2.3-14.56A.919.919,0,0,1,146.854,354.54Z" transform="translate(-143.482 -354.54)" fill="#113984"/>
  <path id="Path_940" data-name="Path 940" d="M179.43,393.33l.9-5.727a.792.792,0,0,1,.9-.743h5.176a5.048,5.048,0,0,1,2.092.381c-.52,3.522-2.8,5.478-5.78,5.478h-2.55A.754.754,0,0,0,179.43,393.33Z" transform="translate(-174.627 -382.542)" fill="#172c70"/>
</svg>
