<svg xmlns="http://www.w3.org/2000/svg" width="67" height="23.682" viewBox="0 0 48.913 14.79">
  <g id="g1353" transform="translate(0 0)">
    <path id="path18" d="M3.448.08.315.675A11.974,11.974,0,0,1,.547,3.5v9.154a5.607,5.607,0,0,1-.214,1.957h2.65a1.848,1.848,0,0,0,.179-.632,2.237,2.237,0,0,0,1.814.891l.139,0,.137-.006.132-.012.132-.018.128-.024.128-.031.065-.016.061-.018.063-.022.063-.02.063-.024.061-.027.063-.029.061-.029.061-.031.063-.035.061-.035.061-.037.063-.039.061-.043.063-.043.063-.045.061-.049.063-.049.063-.053.061-.053A6.184,6.184,0,0,0,8.8,9.254c0-3.419-1.477-5.1-3.612-5.1a2.354,2.354,0,0,0-1.62.573A6.071,6.071,0,0,0,3.641,3.6V2.037A12.154,12.154,0,0,0,3.448.08Zm.993,6.84c.7,0,1.054.495,1.054,2.511,0,1.9-.3,2.589-1.088,2.589a1.012,1.012,0,0,1-.764-.334V7.416L3.654,7.4l.012-.018.014-.018.012-.02.014-.018.014-.02.016-.02.018-.02.016-.02.018-.02.018-.02.018-.02.02-.02.022-.02.022-.02L3.915,7.1l.027-.018.024-.018.026-.018.027-.016.029-.016L4.076,7l.033-.014.033-.012.033-.012.033-.01.037-.008.039-.008.037-.006.041,0,.041,0Z" transform="translate(20.887 -0.08)" fill="#80c31c" stroke="#7fff00"/>
    <path id="path24" d="M4.944.309c-2.6,0-4.18,2.056-4.18,5.418,0,3.3,1.619,5.3,4.553,5.3A5.405,5.405,0,0,0,9.056,9.561L7.863,7.586l-.075.063-.075.061-.075.059-.076.059-.075.055-.075.053-.075.051-.075.051-.076.047-.075.045-.077.043-.075.041-.077.039-.073.039-.076.035-.077.033-.075.031L6.5,8.417l-.075.029-.077.024-.075.022-.077.02-.073.018-.075.018-.077.014L5.9,8.576l-.077.012L5.745,8.6,5.668,8.6l-.075.006-.073,0-.075,0c-1.283,0-1.476-1.226-1.476-1.859H9.09V5.9C9.109,2.4,7.9.309,4.944.309ZM5.052,2.7c.747,0,1.015.692.98,1.818H3.968V4.4l0-.12.006-.116.008-.108L4,3.945l.014-.1.014-.094.018-.092.02-.086.02-.079.024-.077.029-.071.029-.069L4.2,3.214l.031-.059L4.262,3.1,4.3,3.049,4.337,3l.041-.045.041-.039.043-.037.049-.033.045-.029L4.6,2.794l.053-.022.051-.018.053-.016.057-.012.055-.01.059-.006.059,0Z" transform="translate(28.343 3.725)" fill="#0066cb" stroke="#00c7f3"/>
    <path id="path14" d="M4.027.311c-2.6,0-4.18,2.054-4.18,5.416,0,3.3,1.62,5.3,4.556,5.3A5.411,5.411,0,0,0,8.138,9.563L6.946,7.586l-.075.063L6.8,7.71l-.075.059-.075.059-.075.055-.075.053-.075.051-.075.051-.075.047-.075.045-.077.043-.075.041-.075.041-.075.037-.075.035-.077.033-.075.031-.075.031-.075.027-.077.024-.075.022-.075.022-.075.018L5.13,8.55l-.075.014-.075.014-.077.01L4.826,8.6l-.075.008-.075,0-.075,0H4.527c-1.281,0-1.478-1.225-1.478-1.857H8.173V5.9C8.192,2.405,6.981.311,4.027.311ZM4.135,2.7c.747,0,1.014.691.978,1.818H3.049l0-.124,0-.12.006-.114.008-.11.01-.106.014-.1.014-.094.018-.09.02-.086L3.169,3.5l.024-.077.026-.071.026-.067.031-.063.033-.061L3.344,3.1l.037-.051L3.42,3l.041-.043L3.5,2.918l.045-.037.045-.033.047-.029.049-.026.051-.022.053-.018.053-.016L3.9,2.725l.057-.01.059-.006.059,0Z" transform="translate(13.107 3.763)" fill="#80c31c" stroke="#7fff00"/>
    <path id="path20" d="M7.253,10.863,6.6,9.281a7.8,7.8,0,0,1-.411-1.147H6.151A5.716,5.716,0,0,1,5.528,9.8l-.551,1.067H1.187L4.353,5.545,1.721,1.018,5.066.306l.693,1.345a6.942,6.942,0,0,1,.553,1.562h.016a5.667,5.667,0,0,1,.462-1.681L7.2.662h3.63L8.073,5.446l3.112,5.417Z" transform="translate(35.37 3.668)" fill="#0066cb" stroke="#00c7f3"/>
    <path id="polygon26" d="M3.614-.423H3.233V.615H3.018V-.423H2.635V-.6h.98Z" transform="translate(43.763 4.893)" fill="#0066cb" stroke="#00c7f3"/>
    <path id="polygon28" d="M4.026.615H3.834V-.423L3.416.615H3.3L2.894-.423V.615H2.7V-.6h.311L3.36.257,3.719-.6h.307Z" transform="translate(44.887 4.893)" fill="#0066cb" stroke="#00c7f3"/>
    <path id="path30" d="M10.243,10.768H7.192L6.617,7.835c-.24-1.219-.495-2.541-.543-3.179H6.058c-.033.507-.272,1.858-.543,3.179l-.591,2.933H1.809L-.889.932,2.13.314l.623,3.064a21.957,21.957,0,0,1,.638,3.644h.015A32.663,32.663,0,0,1,3.966,3.45L4.54.648H7.719l.719,3.383a18.231,18.231,0,0,1,.447,2.976H8.9a34.992,34.992,0,0,1,.623-3.848L10.082.648h3.051Z" transform="translate(0.889 3.802)" fill="#80c31c" stroke="#7fff00"/>
    <path id="path32" d="M.946,3.284l.062-.011L1.07,3.26l.06-.016.06-.019L1.247,3.2l.058-.024.056-.026.054-.028L1.466,3.1l.052-.033.05-.035.05-.037.045-.039.045-.041.041-.043.041-.045.039-.046.037-.048.035-.05.033-.051.029-.053.029-.054.025-.056.025-.057.021-.058.019-.059.014-.06.014-.062L2.118,2.1l.008-.063,0-.064,0-.065A1.386,1.386,0,0,0,.9.535L.9.571A5.313,5.313,0,0,0,.759,1.828,5.205,5.205,0,0,0,.942,3.239Z" transform="translate(28.254 7.476)" fill="#80c31c" stroke="#7fff00"/>
    <path id="path34" d="M2.265,3.292l-.025,0-.025,0-.025,0-.025,0h-.1a1.386,1.386,0,1,1,0-2.771A1.411,1.411,0,0,1,2.22.543l0,.036a5.313,5.313,0,0,0-.144,1.256,5.205,5.205,0,0,0,.184,1.412Z" transform="translate(26.935 7.468)" fill="#0066cb" stroke="#00c7f3"/>
  </g>
</svg>
