<svg xmlns="http://www.w3.org/2000/svg" width="276.49" height="329.541" viewBox="0 0 276.49 329.541">
  <g id="Group_1999" data-name="Group 1999" transform="translate(0 0.5)">
    <g id="Group_1997" data-name="Group 1997" transform="translate(0)">
      <path id="Path_873" data-name="Path 873" d="M712.022-274.041s9.441-5.469,10.873-5.078,12.818,4.363,12.818,4.363l-22.385,1.52Z" transform="translate(-577.27 488.467)" fill="#f6b4a6" style="mix-blend-mode: normal;isolation: isolate"/>
      <path id="Path_874" data-name="Path 874" d="M638.309-365s.43,5.166.307,6.21-1.783,5.166-5.472,3.77l-.5-.2-.066-.022-.007-.007c-3.076-1.242-4.976-2.776-5.414-4.552a1.362,1.362,0,0,1-.059-.285,1.751,1.751,0,0,1-.029-.183c-.212-2.09,0-10.331,0-10.331l6.079-3s2.908,3.777,3.646,4.6a17.076,17.076,0,0,0,3.427,2.126Z" transform="translate(-554.361 513.909)" fill="#f6b4a6" style="mix-blend-mode: normal;isolation: isolate"/>
      <rect id="Rectangle_1438" data-name="Rectangle 1438" width="3.972" height="9.896" rx="1.986" transform="translate(103.142 258.438)" fill="none" stroke="#231f20" stroke-width="1"/>
      <path id="Path_875" data-name="Path 875" d="M681.674-283.3s13.1,6.965,21.876,7.682l.85,1.824-21.474,2.213-4.052-10.352Z" transform="translate(-568.342 489.588)" fill="#fff" stroke="#000" stroke-width="1"/>
      <path id="Path_876" data-name="Path 876" d="M607.07-393.991c-4.124-2.127-9.245,5.772-9.245,5.772a7.906,7.906,0,0,0-7.293,2.822,9.65,9.65,0,0,1-5.9-1.606c-9.723-22.831-32.575-19.619-32.575-19.619l-.346.579a12.408,12.408,0,0,0-11.7-8.3,12.414,12.414,0,0,0-12.414,12.414,12.413,12.413,0,0,0,12.414,12.414,12.389,12.389,0,0,0,1.918-.163l-.419.7c.2,3.451.326,14,15.691,14.649a32.268,32.268,0,0,0,24.393-9.723c1.345,4.081,8.03,5.383,8.03,5.383,1.736,7.683,10.71,8.076,10.71,8.076l-.032-10.984C607.244-382.446,611.194-391.864,607.07-393.991Z" transform="translate(-527.594 524.884)" style="mix-blend-mode: normal;isolation: isolate"/>
      <path id="Path_877" data-name="Path 877" d="M685.649-270.407s41.7-2.9,45.542-3.094,14,3.385,12.175,13.021-21.745,92.237-21.745,92.237l-7,2.3,3.618-78.259-38.5-9.432Z" transform="translate(-568.573 486.95)" style="mix-blend-mode: normal;isolation: isolate"/>
      <line id="Line_141" data-name="Line 141" y1="5.686" x2="9.385" transform="translate(72.608 141.137)" fill="none" stroke="#000" stroke-width="1"/>
      <line id="Line_142" data-name="Line 142" y2="2.734" transform="translate(81.994 140.312)" fill="none" stroke="#000" stroke-width="1"/>
      <path id="Path_878" data-name="Path 878" d="M631.287-350.262l-.16,1.14-.753,5.29-8.175-.631,2.616-7.72.928-2.725.065-.2a1.365,1.365,0,0,0,.059.285c.438,1.775,2.338,3.31,5.414,4.552Z" transform="translate(-553.076 508.929)" fill="#f6b4a6"/>
      <path id="Path_879" data-name="Path 879" d="M632.252-350.189l-.007-.007c-4.172-.76-5.882-1.023-6.466-1.914l.928-2.725.124.088c.438,1.775,2.338,3.31,5.414,4.552Z" transform="translate(-554.04 508.856)" style="mix-blend-mode: normal;isolation: isolate"/>
      <ellipse id="Ellipse_169" data-name="Ellipse 169" cx="25.696" cy="4.666" rx="25.696" ry="4.666" transform="translate(79.433 250.322)"/>
      <path id="Path_880" data-name="Path 880" d="M761.723-165.243l-7.116,1.564-31.688-65.2s-66.233,1.907-75.381,1.125c-4.976-.424-9.14-5.041-11.895-9.162a44.5,44.5,0,0,1-3.625-6.539c6.846,2.6,13.2.614,24.338-2.046.7-.168,1.367-.336,2.009-.5,9.879-2.579,12.809-5.231,15.133-10.565,7.832,1.059,37.153,5.034,54.112,7.723,19.705,3.127,19.092,11.025,20.049,16.06S761.723-165.243,761.723-165.243Z" transform="translate(-555.721 482.387)" fill="#5367ff" style="mix-blend-mode: normal;isolation: isolate"/>
      <path id="Path_881" data-name="Path 881" d="M708.324-334.5s6.511-2.9,8.041-3.549,3.158-1.79,3.647-1.5a1.182,1.182,0,0,1,.26,1.823,16.266,16.266,0,0,1-1.856,2.083s9.962.131,12.013.131,6.576-.1,6.674.228S734.6-333.23,732.87-333s-10.125,1.6-11.3,1.791-9.9.579-9.9.579Z" transform="translate(-576.274 504.75)" fill="#f6b4a6" style="mix-blend-mode: normal;isolation: isolate"/>
      <path id="Path_882" data-name="Path 882" d="M670.9-310.433c-5.531,9.637-9.637,13.743-9.637,13.743s8.468,10.412,5.926,16.6c-.1.241-.2.482-.307.716-2.323,5.334-5.253,7.986-15.132,10.565-.642.168-1.307.336-2.009.5-11.134,2.66-17.492,4.647-24.338,2.046l-.007-.007c-.351-.132-.7-.278-1.059-.438-.169-.073-.336-.153-.5-.234-7.489-3.58-12.5-5.794-12.246-13.48s-.453-10.741-2.148-18.814a95.156,95.156,0,0,1-1.885-14.978c-.519-6.634.395-27.56,14.781-27.019,12.106.46,26.171,29.891,26.171,29.891s15.688-10.682,19.662-13.546,12.889-9.827,12.889-9.827,3.909.775,4.106,2.733C685.16-331.98,676.436-320.063,670.9-310.433Z" transform="translate(-549.103 505.194)" fill="#fff" style="mix-blend-mode: normal;isolation: isolate"/>
      <path id="Path_883" data-name="Path 883" d="M625.409-299.607s6.966,15.04,12.566,20.183,10.873,6.511,15.561,4.493S666.1-285.479,666.1-285.479" transform="translate(-553.941 493.98)" fill="none" stroke="#000" stroke-width="1"/>
      <path id="Path_884" data-name="Path 884" d="M658.365-242.106c-6.261,4.9-17.871,7.971-22.722,9.089a44.473,44.473,0,0,1-3.625-6.539c6.846,2.6,13.2.614,24.338-2.046C657.058-241.77,657.723-241.938,658.365-242.106Z" transform="translate(-555.721 478.492)" style="mix-blend-mode: normal;isolation: isolate"/>
      <path id="Path_885" data-name="Path 885" d="M727.973-127.138l2.561,7.422h1.606v-3.906l5.165,4.427,14.107-1.172-.694-2.8H745.6l-10.981-6.27Z" transform="translate(-581.567 448.144)" fill="#fb65a6" style="mix-blend-mode: normal;isolation: isolate"/>
      <path id="Path_886" data-name="Path 886" d="M799.973-129.87l2.561,7.422h1.606v-3.906l5.165,4.427,14.107-1.172-.694-2.8H817.6l-10.981-6.27Z" transform="translate(-600.96 448.88)" fill="#fb65a6" style="mix-blend-mode: normal;isolation: isolate"/>
      <rect id="Rectangle_1439" data-name="Rectangle 1439" width="83.858" height="5.99" rx="2.995" transform="translate(171.277 203.944)" style="mix-blend-mode: normal;isolation: isolate"/>
      <path id="Path_887" data-name="Path 887" d="M833.138-301.085l-36.2-.435c-2.644-.117-4.3-1.881-3.7-3.942l13.127-29.171c.6-2.06,3.232-3.635,5.875-3.518l35.182-1.977c2.644.117,4.3,1.881,3.7,3.942L839.013-304.6C838.412-302.544,835.781-300.969,833.138-301.085Z" transform="translate(-599.113 504.895)" fill="#fff" stroke="#000" stroke-width="1"/>
      <path id="Path_888" data-name="Path 888" d="M812.8-331.058l34.116-2.4-13.282,29.748H799.26Z" transform="translate(-600.768 503.099)" style="mix-blend-mode: normal;isolation: isolate"/>
      <g id="Group_1996" data-name="Group 1996" transform="translate(172.84 209.328)">
        <line id="Line_143" data-name="Line 143" x1="22.397" y2="119.622" transform="translate(0)" fill="none" stroke="#000" stroke-width="1"/>
        <line id="Line_144" data-name="Line 144" x2="22.397" y2="119.622" transform="translate(57.629)" fill="none" stroke="#000" stroke-width="1"/>
        <line id="Line_145" data-name="Line 145" x2="38.482" transform="translate(20.772 8.679)" fill="none" stroke="#000" stroke-width="1"/>
        <line id="Line_146" data-name="Line 146" x2="66.062" transform="translate(6.982 82.333)" fill="none" stroke="#000" stroke-width="1"/>
      </g>
      <path id="Path_889" data-name="Path 889" d="M846.5-189.306l-10.591-32.467,4.167-14.063,17.883,32.988,8.855-64.413,1.91,62.5,5.382-14.063,5.9,6.6-2.952,22.918Z" transform="translate(-610.641 485.268)" fill="#fff" stroke="#000" stroke-width="1"/>
      <line id="Line_147" data-name="Line 147" x1="3.906" y2="13.803" transform="translate(253.92 282.159)" fill="none" stroke="#000" stroke-width="1"/>
      <path id="Path_890" data-name="Path 890" d="M801.27-513.161c-26.8,11.785-57.115,5.9-83.725-16.768-14.693-12.516-33-13.663-47.127-11.9a78.667,78.667,0,0,1,56.479-23.8A78.951,78.951,0,0,1,801.27-513.161Z" transform="translate(-566.064 565.636)" stroke="#000" stroke-width="1"/>
      <path id="Path_891" data-name="Path 891" d="M797.54-478.176a78.921,78.921,0,0,1-78.917,78.924,78.7,78.7,0,0,1-57.553-24.922c-5.407,2.857-15.212,3.047-15.212,3.047l9.761-9.513A78.539,78.539,0,0,1,639.7-478.176a78.649,78.649,0,0,1,22.445-55.12c14.131-1.761,32.433-.614,47.127,11.9,26.61,22.665,56.924,28.554,83.725,16.768A78.691,78.691,0,0,1,797.54-478.176Z" transform="translate(-557.79 557.1)" fill="#fff" stroke="#000" stroke-width="1"/>
      <line id="Line_148" data-name="Line 148" y1="12.265" x2="0.742" transform="translate(246.58 283.114)" fill="none" stroke="#000" stroke-width="1"/>
      <path id="Path_892" data-name="Path 892" d="M838.192-224.251l-7.726,2L828.9-194.475Z" transform="translate(-608.753 473.683)" fill="none" stroke="#000" stroke-width="1"/>
      <path id="Path_893" data-name="Path 893" d="M839.481-199.847l.64-24.4-4.056,14.4Z" transform="translate(-610.682 473.683)"/>
      <path id="Path_894" data-name="Path 894" d="M901.14-187.208,894.5-201.835l-6.576-.108Z" transform="translate(-624.65 467.674)"/>
      <path id="Path_895" data-name="Path 895" d="M876.429-128.324H853.012l-7.763-32.293h37.788Z" transform="translate(-613.156 456.543)" fill="#5367ff" style="mix-blend-mode: normal;isolation: isolate"/>
      <line id="Line_149" data-name="Line 149" x1="3.212" y2="37.674" transform="translate(101.916 269.138)" fill="none" stroke="#000" stroke-width="1"/>
      <path id="Path_896" data-name="Path 896" d="M632.018-135.331c4.02-4.177,9.4-8.2,15.118-9.52a26.433,26.433,0,0,1,17.093,1.844,22.879,22.879,0,0,1,7.645,5.806c2.342,2.769,3.416,5.89,4.6,9.249" transform="translate(-555.721 452.474)" fill="none" stroke="#000" stroke-width="1"/>
      <path id="Path_897" data-name="Path 897" d="M662.966-145.063s-8.268,12.8-9.31,17.232" transform="translate(-561.549 452.353)" fill="none" stroke="#000" stroke-width="1"/>
      <ellipse id="Ellipse_170" data-name="Ellipse 170" cx="2.17" cy="2.17" rx="2.17" ry="2.17" transform="translate(89.285 324.175)" style="mix-blend-mode: normal;isolation: isolate"/>
      <ellipse id="Ellipse_171" data-name="Ellipse 171" cx="2.17" cy="2.17" rx="2.17" ry="2.17" transform="translate(72.835 316.538)" style="mix-blend-mode: normal;isolation: isolate"/>
      <ellipse id="Ellipse_172" data-name="Ellipse 172" cx="2.17" cy="2.17" rx="2.17" ry="2.17" transform="translate(119.105 323.873)" style="mix-blend-mode: normal;isolation: isolate"/>
      <ellipse id="Ellipse_173" data-name="Ellipse 173" cx="2.127" cy="2.127" rx="2.127" ry="2.127" transform="translate(149.054 84.19)" fill="#fff" stroke="#000" stroke-width="1"/>
      <ellipse id="Ellipse_174" data-name="Ellipse 174" cx="2.127" cy="2.127" rx="2.127" ry="2.127" transform="translate(159.911 84.19)" fill="#fff" stroke="#000" stroke-width="1"/>
      <ellipse id="Ellipse_175" data-name="Ellipse 175" cx="2.127" cy="2.127" rx="2.127" ry="2.127" transform="translate(171.021 84.19)" fill="#fff" stroke="#000" stroke-width="1"/>
      <ellipse id="Ellipse_176" data-name="Ellipse 176" cx="12.24" cy="12.24" rx="12.24" ry="12.24" transform="translate(222.965 89.095)" fill="#fb65a6" style="mix-blend-mode: normal;isolation: isolate"/>
    </g>
  </g>
</svg>
