<svg id="zoom-seeklogo.com-1" xmlns="http://www.w3.org/2000/svg" xmlns:xlink="http://www.w3.org/1999/xlink" width="67" height="23.682" viewBox="0 0 67 23.682">
  <defs>
    <clipPath id="clip-path">
      <ellipse id="Ellipse_196" data-name="Ellipse 196" cx="11.529" cy="11.841" rx="11.529" ry="11.841"/>
    </clipPath>
    <clipPath id="clip-path-2">
      <circle id="Ellipse_197" data-name="Ellipse 197" cx="11.432" cy="11.432" r="11.432"/>
    </clipPath>
    <clipPath id="clip-path-3">
      <circle id="Ellipse_198" data-name="Ellipse 198" cx="10.516" cy="10.516" r="10.516"/>
    </clipPath>
    <clipPath id="clip-path-4">
      <path id="Path_1133" data-name="Path 1133" d="M-528.237-43.6l2.974-2.174c.26-.212.458-.164.458.227v6.627c0,.439-.246.39-.458.227l-2.974-2.174ZM-538.3-45.529v4.935a2.024,2.024,0,0,0,2.034,2.015h7.205a.373.373,0,0,0,.371-.366v-4.94a2.024,2.024,0,0,0-2.034-2.015h-7.205A.378.378,0,0,0-538.3-45.529Z" transform="translate(538.3 45.9)"/>
    </clipPath>
  </defs>
  <path id="Path_1123" data-name="Path 1123" d="M97.374-64.8h0A4.569,4.569,0,0,0,92.8-60.231a4.57,4.57,0,0,0,4.569,4.574,4.57,4.57,0,0,0,4.574-4.569A4.57,4.57,0,0,0,97.374-64.8Zm1.933,6.511a2.746,2.746,0,0,1-3.88,0,2.749,2.749,0,0,1,0-3.875,2.742,2.742,0,0,1,3.88,0l0,0A2.737,2.737,0,0,1,99.306-58.289Z" transform="translate(-57.815 72.067)" fill="#4a8cff"/>
  <path id="Path_1124" data-name="Path 1124" d="M-79.726-57.555l-.458-.024H-84.3l5.489-5.489-.024-.458a1.386,1.386,0,0,0-1.349-1.349l-.458-.024H-87.5l.024.458a1.417,1.417,0,0,0,1.349,1.349l.458.024h4.116l-5.489,5.489.024.458a1.4,1.4,0,0,0,1.349,1.349l.458.024h6.858l-.024-.458A1.41,1.41,0,0,0-79.726-57.555Z" transform="translate(113.795 72.162)" fill="#4a8cff"/>
  <path id="Path_1125" data-name="Path 1125" d="M135.4-26.2a2.746,2.746,0,0,0-3.88,0,2.749,2.749,0,0,0,0,3.875,2.742,2.742,0,0,0,3.88,0,2.742,2.742,0,0,0,0-3.88Z" transform="translate(-93.913 36.089)" fill="#fff"/>
  <path id="Path_1126" data-name="Path 1126" d="M500.542-64.817a3.66,3.66,0,0,0-2.742,1.239,3.656,3.656,0,0,0-4.791-.612,2.5,2.5,0,0,0-1.61-.627v9.147l.458-.024a1.379,1.379,0,0,0,1.349-1.349l.024-.458v-3.2l.024-.458a2.026,2.026,0,0,1,.227-.916,1.825,1.825,0,0,1,2.5-.665,1.834,1.834,0,0,1,.665.665h0a1.966,1.966,0,0,1,.227.916l.024.458v3.2l.024.458a1.4,1.4,0,0,0,1.345,1.349l.458.024V-60.7l.024-.458a1.97,1.97,0,0,1,.227-.921,1.827,1.827,0,0,1,2.5-.66,1.834,1.834,0,0,1,.665.665,2.021,2.021,0,0,1,.222.916l.024.458v3.2l.024.458a1.4,1.4,0,0,0,1.345,1.349l.458.024v-5.489A3.666,3.666,0,0,0,500.542-64.817Z" transform="translate(-437.205 72.084)" fill="#4a8cff"/>
  <path id="Path_1127" data-name="Path 1127" d="M299.867-63.46a4.57,4.57,0,0,0-3.234-1.34,4.571,4.571,0,0,0-3.234,1.34,4.574,4.574,0,0,0,0,6.468,4.574,4.574,0,0,0,6.468,0,4.564,4.564,0,0,0,0-6.463Zm-1.3,5.171a2.746,2.746,0,0,1-3.88,0,2.749,2.749,0,0,1,0-3.875,2.742,2.742,0,0,1,3.88,0l0,0A2.737,2.737,0,0,1,298.571-58.289Z" transform="translate(-247.474 72.067)" fill="#4a8cff"/>
  <path id="Path_1128" data-name="Path 1128" d="M334.7-26.2a2.746,2.746,0,0,0-3.88,0,2.749,2.749,0,0,0,0,3.875,2.742,2.742,0,0,0,3.88,0,2.742,2.742,0,0,0,0-3.88Z" transform="translate(-283.607 36.089)" fill="#fff"/>
  <g id="Group_2100" data-name="Group 2100" transform="translate(0.043)">
    <g id="Group_2099" data-name="Group 2099" clip-path="url(#clip-path)">
      <path id="Path_1129" data-name="Path 1129" d="M-649.8-223.8h24.469v24.469H-649.8Z" transform="translate(648.952 223.404)" fill="#e5e5e4"/>
    </g>
  </g>
  <g id="Group_2102" data-name="Group 2102" transform="translate(0 0.409)">
    <g id="Group_2101" data-name="Group 2101" transform="translate(0 0)" clip-path="url(#clip-path-2)">
      <path id="Path_1130" data-name="Path 1130" d="M-645-219h24.011v24.011H-645Z" transform="translate(644.426 218.426)" fill="#fff"/>
    </g>
  </g>
  <g id="Group_2104" data-name="Group 2104" transform="translate(0.916 1.325)">
    <g id="Group_2103" data-name="Group 2103" transform="translate(0 0)" clip-path="url(#clip-path-3)">
      <path id="Path_1131" data-name="Path 1131" d="M-626-200h22.179v22.179H-626Z" transform="translate(625.426 199.426)" fill="#4a8cff"/>
    </g>
  </g>
  <g id="Group_2106" data-name="Group 2106" transform="translate(4.569 8.178)">
    <g id="Group_2105" data-name="Group 2105" transform="translate(0 0)" clip-path="url(#clip-path-4)">
      <path id="Path_1132" data-name="Path 1132" d="M-550.1-57.7h14.637v8.458H-550.1Z" transform="translate(549.531 57.131)" fill="#fff"/>
    </g>
  </g>
</svg>
